# AST/ASF file generated using VICON BodyLanguage
# -----------------------------------------------
:version 1.10
:name VICON
:units
  mass 1.0
  length 0.45
  angle deg
:documentation
   .ast/.asf automatically generated from VICON data using
   VICON BodyBuilder and BodyLanguage model FoxedUp or BRILLIANT.MOD
:root
   order TX TY TZ RX RY RZ
   axis XYZ
   position 0 0 0  
   orientation 0 0 0 
:bonedata
  begin
     id 1 
     name lhipjoint
     direction 0.561145 -0.797705 0.220866 
     length 2.46425 
     axis 0 0 0  XYZ
  end
  begin
     id 2 
     name lfemur
     direction 0.34202 -0.939693 0  
     length 7.95556  
     axis 0 0 20  XYZ
    dof rx ry rz
    limits (-160.0 20.0)
           (-70.0 70.0)
           (-60.0 70.0)
  end
  begin
     id 3 
     name ltibia
     direction 0.34202 -0.939693 0   
     length 7.9832   
     axis 0 0 20   XYZ
    dof rx
    limits (-10.0 170.0)
  end
  begin
     id 4 
     name lfoot
     direction 0.0723927 -0.198897 0.977343   
     length 2.23085   
     axis -90 7.62852e-016 20   XYZ
    dof rx rz
    limits (-45.0 90.0)
           (-70.0 20.0)
  end
  begin
     id 5 
     name ltoes
     direction 1.53826e-011 -4.21988e-011 1   
     length 1.12127   
     axis -90 7.62852e-016 20   XYZ
    dof rx
    limits (-90.0 20.0)
  end
  begin
     id 6 
     name rhipjoint
     direction -0.610499 -0.763299 0.21134   
     length 2.57533  
     axis 0 0 0  XYZ 
  end
  begin
     id 7 
     name rfemur
     direction -0.34202 -0.939693 0   
     length 8.65257   
     axis 0 0 -20   XYZ
    dof rx ry rz
    limits (-160.0 20.0)
           (-70.0 70.0)
           (-70.0 60.0)
  end
  begin
     id 8 
     name rtibia
     direction -0.342021 -0.939692 0   
     length 7.37807   
     axis 0 0 -20   XYZ
    dof rx
    limits (-10.0 170.0)
 end
 begin
     id 9 
     name rfoot
     direction -0.0239304 -0.0543852 0.998233   
     length 1.87018  
     axis -90 -7.62852e-016 -20   XYZ
    dof rx rz
    limits (-45.0 90.0)
           (-20.0 70.0)
  end
  begin
     id 10 
     name rtoes
     direction -1.53584e-011 -4.2242e-011 1   
     length 0.951568   
     axis -90 -7.62852e-016 -20   XYZ
    dof rx
    limits (-90.0 20.0)
  end
  begin
     id 11 
     name lowerback
     direction 0.00322089 0.999033 0.0438587   
     length 2.07568   
     axis 0 0 0   XYZ
    dof rx ry rz
    limits (-20.0 45.0)
           (-30.0 30.0)
           (-30.0 30.0)
  end
  begin
     id 12 
     name upperback
     direction -0.00321932 0.999732 -0.0229403   
     length 2.06253   
     axis 0 0 0   XYZ
    dof rx ry rz
    limits (-20.0 45.0)
           (-30.0 30.0)
           (-30.0 30.0)
  end
  begin
     id 13 
     name thorax
     direction -0.00537537 0.998955 -0.0453918   
     length 2.06975   
     axis 0 0 0   XYZ
    dof rx ry rz
    limits (-20.0 45.0)
           (-30.0 30.0)
           (-30.0 30.0)
  end
  begin
     id 14 
     name lowerneck
     direction -0.00013604 0.994111 0.108363   
     length 1.50836   
     axis 0 0 0   XYZ
    dof rx ry rz
    limits (-20.0 45.0)
           (-30.0 30.0)
           (-30.0 30.0)
  end
  begin
     id 15 
     name upperneck
     direction 0.0397262 0.983859 -0.174482   
     length 1.53037   
     axis 0 0 0   XYZ
    dof rx ry rz
    limits (-20.0 45.0)
           (-30.0 30.0)
           (-30.0 30.0)
  end
  begin
     id 16
     name head
     direction 0.0109991 0.997082 -0.0755378  
     length 1.56928  
     axis 0 0 0   XYZ
    dof rx ry rz
    limits (-20.0 45.0)
           (-30.0 30.0)
           (-30.0 30.0)
  end
  begin
     id 17 
     name lclavicle
     direction 0.964749 0.254 -0.068874  
     length 3.26503  
     axis 0 0 0   XYZ
    dof ry rz
    limits (-20.0 10.0)
           (0.0 20.0)
  end
  begin
     id 18 
     name lhumerus
     direction 1 -4.48941e-011 -2.05079e-027   
     length 5.68236   
     axis 180 -30 -90   XYZ
    dof rx ry rz
    limits (-60.0 90.0)
           (-90.0 90.0)
           (-90.0 90.0)
  end
  begin
     id 19
     name lradius
     direction 1 -4.48956e-011 6.2882e-027   
     length 3.17112   
     axis 180 -30 -90   XYZ
    dof rx
    limits (-10.0 170.0)
  end
  begin
     id 20
     name lwrist
     direction 1 -4.49014e-011 1.73219e-026   
     length 1.58556   
     axis -1.04724e-014 90 90   XYZ
    dof ry
    limits (-180.0 0.0)
 end
  begin
     id 21 
     name lhand
     direction 1 -4.49312e-011 3.46438e-026   
     length 0.632691   
     axis -2.21057e-014 90 90   XYZ
    dof rx rz
    limits (-90.0 90.0)
           (-45.0 45.0)
  end
  begin
     id 22 
     name lfingers
     direction 1 -4.48894e-011 6.92876e-026   
     length 0.510091   
     axis -4.42114e-014 90 90   XYZ
    dof rx
    limits (0.0 90.0)
  end
  begin
     id 23
     name lthumb
     direction 0.707107 -6.34705e-011 0.707107   
     length 0.732392   
     axis -90 45 2.85299e-015   XYZ
    dof rx rz
    limits (-45.0 45.0)
           (-45.0 45.0)
  end
  begin
     id 24 
     name rclavicle
     direction -0.954374 0.280496 -0.102435   
     length 3.25419  
     axis 0 0 0   XYZ 
    dof ry rz
    limits (-10.0 20.0)
           (-20.0 0.0)
  end
  begin
     id 25 
     name rhumerus
     direction -1 -4.48994e-011 -1.07204e-017  
     length 5.8712   
     axis 180 30 90   XYZ
    dof rx ry rz
    limits (-90.0 60.0)
           (-90.0 90.0)
           (-90.0 90.0)
  end
  begin
     id 26 
     name rradius
     direction -1 -4.48972e-011 5.89292e-027   
     length 3.37589   
     axis 180 30 90   XYZ
    dof rx
    limits (-10.0 170.0)
  end
  begin
     id 27 
     name rwrist
     direction -1 -4.48942e-011 1.73219e-026   
     length 1.68794   
     axis -1.04724e-014 -90 -90   XYZ
    dof ry
    limits (-180.0 0.0)
  end
  begin
     id 28
     name rhand
     direction -1 -4.48514e-011 3.46438e-026   
     length 0.603257   
     axis -2.21057e-014 -90 -90   XYZ
    dof rx rz
    limits (-90.0 90.0)
           (-45.0 45.0)
  end
  begin
     id 29
     name rfingers
     direction -1 -4.50028e-011 6.92876e-026   
     length 0.486362   
     axis -4.42114e-014 -90 -90   XYZ
    dof rx
    limits (0.0 90.0)
  end
  begin
     id 30
     name rthumb
     direction -0.707107 -6.34926e-011 0.707107   
     length 0.698321   
     axis -90 -45 -2.85299e-015   XYZ
    dof rx rz
    limits (-45.0 45.0)
           (-45.0 45.0)
  end
:hierarchy
  begin
    root lhipjoint rhipjoint lowerback
    lhipjoint lfemur
    lfemur ltibia
    ltibia lfoot
    lfoot ltoes
    rhipjoint rfemur
    rfemur rtibia
    rtibia rfoot
    rfoot rtoes
    lowerback upperback
    upperback thorax
    thorax lowerneck lclavicle rclavicle
    lowerneck upperneck
    upperneck head
    lclavicle lhumerus
    lhumerus lradius
    lradius lwrist
    lwrist lhand lthumb
    lhand lfingers
    rclavicle rhumerus
    rhumerus rradius
    rradius rwrist
    rwrist rhand rthumb
    rhand rfingers
  end

#!OML:ASF I:\Segmentation\Patient Classification 1\Patient 1\Session 1\Patient1.ASF
:FULLY-SPECIFIED
:DEGREES
573
root -16.7122 17.6059 -0.652497 184.706 88.441 -194.687
lowerback -3.82927 -0.459052 -0.110294
upperback 3.77597 -0.634599 1.17812
thorax 6.08407 -0.331657 1.23132
lowerneck -15.1995 -2.27525 -6.24887
upperneck 8.19935 -2.43245 5.57058
head 5.08159 -1.006 2.54734
rclavicle -6.55989e-015 2.90226e-014
rhumerus -29.8187 -1.16577 -70.2342
rradius 60.9684
rwrist -1.78357
rhand -21.2806 33.8379
rfingers 7.12502
rthumb 5.10343 3.9194
lclavicle -6.55989e-015 2.90226e-014
lhumerus -27.5297 -8.3739 68.415
lradius 48.3856
lwrist 20.5295
lhand -17.0407 31.0282
lfingers 7.12502
lthumb 9.19603 60.8076
rfemur -44.6123 1.13643 20.9021
rtibia 47.3869
rfoot -9.87109 9.19261
rtoes -25.3246
lfemur -44.4862 10.7631 -21.2692
ltibia 54.2814
lfoot -23.1925 1.2869
ltoes -32.9525
574
root -16.6951 17.6136 -0.65876 179.513 88.7384 -200.089
lowerback -3.56872 -0.382838 -0.0530536
upperback 3.91587 -0.528601 1.10691
thorax 6.07795 -0.273911 1.13601
lowerneck -15.3484 -2.23887 -6.11342
upperneck 8.01369 -2.39062 5.53198
head 5.04313 -0.980908 2.51589
rclavicle -1.70955e-014 -3.73715e-014
rhumerus -30.593 -1.74378 -69.8616
rradius 59.8898
rwrist -1.2848
rhand -21.2417 33.7494
rfingers 7.12502
rthumb 5.14095 3.83181
lclavicle -1.70955e-014 -3.73715e-014
lhumerus -28.4252 -8.38199 68.0212
lradius 47.9139
lwrist 19.5416
lhand -15.8655 32.0473
lfingers 7.12502
lthumb 10.3299 61.7736
rfemur -44.7533 1.29716 20.7786
rtibia 47.2565
rfoot -9.62101 9.40152
rtoes -24.1096
lfemur -44.8371 9.7133 -20.832
ltibia 53.5808
lfoot -23.6271 1.27393
ltoes -31.4775
575
root -16.6775 17.624 -0.665331 171.085 89.0273 -208.695
lowerback -3.16737 -0.331872 0.0133808
upperback 3.91559 -0.456041 1.01655
thorax 5.84382 -0.231933 1.01241
lowerneck -15.2401 -2.15394 -5.95069
upperneck 7.85977 -2.30459 5.48451
head 4.96996 -0.93811 2.48212
rclavicle -5.56597e-015 -4.37326e-015
rhumerus -31.5477 -2.2481 -69.4749
rradius 58.7566
rwrist -0.849431
rhand -20.9057 33.8432
rfingers 7.12502
rthumb 5.46536 3.93368
lclavicle -5.56597e-015 -4.37326e-015
lhumerus -29.6559 -8.53816 67.6497
lradius 47.4695
lwrist 18.9539
lhand -14.8662 32.9659
lfingers 7.12502
lthumb 11.2938 62.6418
rfemur -44.8545 1.46598 20.6655
rtibia 47.1163
rfoot -9.32852 9.63975
rtoes -22.7178
lfemur -45.1376 8.71918 -20.4012
ltibia 52.8328
lfoot -23.9713 1.45479
ltoes -30.9856
576
root -16.6599 17.6347 -0.671999 153.191 89.2898 -226.808
lowerback -3.03634 -0.298224 -0.0633897
upperback 4.03593 -0.403318 1.01061
thorax 5.895 -0.208182 1.0543
lowerneck -15.0857 -2.06228 -5.95031
upperneck 7.56117 -2.17758 5.47152
head 4.84435 -0.878489 2.48871
rclavicle 9.74045e-015 -4.77083e-015
rhumerus -32.324 -2.63111 -68.9623
rradius 57.5581
rwrist -0.42086
rhand -20.7112 33.7693
rfingers 7.12502
rthumb 5.65317 3.86471
lclavicle 9.74045e-015 -4.77083e-015
lhumerus -30.6738 -8.55255 67.4798
lradius 46.7537
lwrist 18.9926
lhand -14.7451 33.3919
lfingers 7.12502
lthumb 11.4106 63.0614
rfemur -44.9887 1.64654 20.5189
rtibia 46.9587
rfoot -9.1093 9.81699
rtoes -21.6713
lfemur -45.513 7.888 -20.0454
ltibia 52.0831
lfoot -24.139 1.70468
ltoes -31.345
577
root -16.6414 17.6434 -0.678891 127.604 89.4511 -252.718
lowerback -2.87867 -0.255567 -0.0441509
upperback 4.06269 -0.344572 0.990571
thorax 5.83117 -0.177243 1.02782
lowerneck -14.9298 -2.00479 -5.99144
upperneck 7.34845 -2.10111 5.54436
head 4.74993 -0.839217 2.52472
rclavicle 1.63003e-014 3.10104e-014
rhumerus -33.2883 -3.10732 -68.4279
rradius 56.3107
rwrist 0.086126
rhand -20.494 33.4013
rfingers 7.12502
rthumb 5.86289 3.50241
lclavicle 1.63003e-014 3.10104e-014
lhumerus -31.8156 -8.65846 67.2822
lradius 46.0468
lwrist 18.8916
lhand -14.6628 33.4549
lfingers 7.12502
lthumb 11.4899 63.12
rfemur -45.221 1.76836 20.4334
rtibia 46.7673
rfoot -8.89651 9.95254
rtoes -21.1295
lfemur -46.0263 7.1422 -19.6399
ltibia 51.3602
lfoot -24.129 1.72471
ltoes -31.0386
578
root -16.6224 17.653 -0.68351 96.6658 89.5127 -283.995
lowerback -2.79983 -0.19778 0.0191821
upperback 4.10518 -0.268719 0.974279
thorax 5.82876 -0.136138 0.981587
lowerneck -14.606 -1.96508 -5.98969
upperneck 7.02675 -2.06162 5.61075
head 4.59643 -0.819688 2.54848
rclavicle -7.95139e-016 2.18663e-014
rhumerus -34.354 -3.79904 -67.8119
rradius 55.079
rwrist 0.674045
rhand -20.0976 33.1179
rfingers 7.12502
rthumb 6.24559 3.22997
lclavicle -7.95139e-016 2.18663e-014
lhumerus -33.0628 -8.81638 67.0714
lradius 45.4787
lwrist 18.6061
lhand -14.636 33.4851
lfingers 7.12502
lthumb 11.5158 63.1488
rfemur -45.4537 1.87612 20.4307
rtibia 46.5428
rfoot -8.70482 10.0482
rtoes -20.864
lfemur -46.5468 6.2547 -19.0726
ltibia 50.6481
lfoot -24.0923 1.61847
ltoes -29.5531
579
root -16.6021 17.6654 -0.688612 66.134 89.3827 -314.821
lowerback -2.82065 -0.122854 0.018014
upperback 4.36428 -0.163162 0.947964
thorax 6.11231 -0.0820112 0.964439
lowerneck -14.7545 -1.92334 -5.82093
upperneck 6.67396 -2.00653 5.52747
head 4.50522 -0.789702 2.49828
rclavicle 4.17448e-015 7.15625e-015
rhumerus -34.9844 -4.71413 -67.1459
rradius 53.6575
rwrist 1.25962
rhand -20.2267 33.6833
rfingers 7.12502
rthumb 6.12091 3.79169
lclavicle 4.17448e-015 7.15625e-015
lhumerus -33.9115 -8.69729 66.7811
lradius 44.9123
lwrist 18.4543
lhand -14.5483 34.0125
lfingers 7.12502
lthumb 11.6004 63.6714
rfemur -45.6316 1.97092 20.4172
rtibia 46.3065
rfoot -8.54008 10.2046
rtoes -20.3266
lfemur -47.0112 5.36677 -18.5044
ltibia 49.9281
lfoot -23.9316 1.39699
ltoes -28.262
580
root -16.5809 17.6794 -0.69681 49.7182 89.0719 -331.451
lowerback -2.69838 -0.16378 -0.15864
upperback 4.52143 -0.208839 1.05305
thorax 6.21044 -0.11417 1.16995
lowerneck -14.5327 -1.75932 -5.89484
upperneck 6.22783 -1.75456 5.39806
head 4.31624 -0.678031 2.48943
rclavicle 9.93923e-016 -7.15625e-015
rhumerus -35.5485 -5.12235 -66.3169
rradius 52.1152
rwrist 1.71
rhand -20.4438 34.4343
rfingers 7.12502
rthumb 5.91134 4.53677
lclavicle 9.93923e-016 -7.15625e-015
lhumerus -35.0951 -8.08186 66.5743
lradius 44.2063
lwrist 18.3236
lhand -14.397 34.8704
lfingers 7.12502
lthumb 11.7463 64.5211
rfemur -45.7275 2.05766 20.3475
rtibia 46.0758
rfoot -8.19613 10.4652
rtoes -19.0536
lfemur -47.3793 4.80876 -18.1115
ltibia 49.2117
lfoot -23.5521 0.773393
ltoes -28.3418
581
root -16.5606 17.6881 -0.707608 39.7282 88.7221 -341.598
lowerback -2.31444 -0.0506773 -0.081382
upperback 4.44743 -0.0546115 0.943819
thorax 5.90721 -0.0306478 1.02395
lowerneck -13.7685 -1.67614 -5.69217
upperneck 5.83514 -1.71311 5.44172
head 4.06936 -0.660496 2.47358
rclavicle -3.97569e-016 -1.19271e-015
rhumerus -36.9675 -5.86526 -65.5106
rradius 50.7224
rwrist 2.29444
rhand -19.964 34.4972
rfingers 7.12502
rthumb 6.37455 4.61308
lclavicle -3.97569e-016 -1.19271e-015
lhumerus -36.4746 -8.19163 66.1596
lradius 43.4046
lwrist 18.2133
lhand -14.3485 35.7558
lfingers 7.12502
lthumb 11.7931 65.4038
rfemur -45.7845 2.13226 20.3287
rtibia 45.8718
rfoot -7.86297 10.7071
rtoes -18.1713
lfemur -47.7005 4.43336 -17.7743
ltibia 48.5266
lfoot -23.0498 0.105985
ltoes -29.6666
582
root -16.5402 17.6928 -0.718337 31.974 88.4112 -349.554
lowerback -2.00562 -0.0391194 -0.0400277
upperback 4.67364 -0.0367901 1.01793
thorax 5.96838 -0.0190713 1.07976
lowerneck -14.4224 -1.64806 -5.94253
upperneck 5.90593 -1.60338 5.5388
head 4.19254 -0.596459 2.55243
rclavicle -1.0138e-014 -1.51076e-014
rhumerus -37.7367 -6.20312 -64.6326
rradius 49.4588
rwrist 2.75693
rhand -19.7253 34.3422
rfingers 7.12502
rthumb 6.60497 4.46522
lclavicle -1.0138e-014 -1.51076e-014
lhumerus -37.4745 -7.56262 65.8123
lradius 42.6435
lwrist 17.9787
lhand -14.2765 35.8135
lfingers 7.12502
lthumb 11.8625 65.4575
rfemur -45.8991 2.14995 20.4264
rtibia 45.6995
rfoot -7.65784 10.9259
rtoes -17.9875
lfemur -48.082 3.99637 -17.342
ltibia 47.8973
lfoot -22.7326 -0.542407
ltoes -29.8821
583
root -16.5207 17.6979 -0.726019 27.4202 88.1319 -354.355
lowerback -1.85442 0.00112139 -0.0686451
upperback 4.66882 0.016636 1.08713
thorax 5.87548 0.00491329 1.17096
lowerneck -13.6096 -1.56867 -5.9753
upperneck 5.30742 -1.5111 5.48658
head 3.87302 -0.565454 2.54736
rclavicle -2.98177e-015 -5.96354e-015
rhumerus -39.1504 -6.25105 -63.7248
rradius 48.5023
rwrist 2.92599
rhand -20.5784 34.405
rfingers 7.12502
rthumb 5.78144 4.50392
lclavicle -2.98177e-015 -5.96354e-015
lhumerus -38.963 -7.21535 65.4851
lradius 41.9786
lwrist 17.8375
lhand -14.2404 34.8261
lfingers 7.12502
lthumb 11.8973 64.468
rfemur -46.0668 2.23043 20.4863
rtibia 45.5455
rfoot -7.43793 11.107
rtoes -17.5577
lfemur -48.4934 3.58513 -16.918
ltibia 47.3123
lfoot -22.5504 -1.51765
ltoes -28.3503
